<?xml version="1.0" encoding="utf-8"?>
<!-- Generator: Adobe Illustrator 16.0.4, SVG Export Plug-In . SVG Version: 6.00 Build 0)  -->
<!DOCTYPE svg PUBLIC "-//W3C//DTD SVG 1.1//EN" "http://www.w3.org/Graphics/SVG/1.1/DTD/svg11.dtd">
<svg version="1.1" id="Layer_1" xmlns="http://www.w3.org/2000/svg" xmlns:xlink="http://www.w3.org/1999/xlink" x="0px" y="0px"
	 width="402.015px" height="79.915px" viewBox="0 0 402.015 79.915" enable-background="new 0 0 402.015 79.915"
	 xml:space="preserve">
<g>
	<g>
		<path fill="#63BB46" d="M8.981,66.229c-2.125-2.125-2.782-4.766-2.782-10.319V43.974c0-5.124-0.583-6.001-5.199-7.617v-2.266
			c2.273-0.659,3.297-1.247,4.174-2.335c0.881-1.256,1.025-2.054,1.025-5.352V14.549c0-3.735,0.219-5.347,0.951-7.328
			c0.878-2.41,2.853-4.386,5.198-5.125c2.266-0.731,4.098-0.943,10.1-1.097v3.887c-4.757,0.877-5.636,2.117-5.636,8.195v12.588
			c0,2.047-0.289,4.542-0.661,6.149c-0.437,1.612-1.094,2.491-2.631,3.442c1.538,1.094,2.194,1.903,2.562,3.368
			c0.441,1.683,0.73,3.95,0.73,6.149V57.59c0,5.927,0.808,7.026,5.636,7.979v3.88C13.663,69.228,11.325,68.716,8.981,66.229z"/>
	</g>
	<g>
		<path fill="#63BB46" d="M80.367,69.449v-3.88c4.833-0.953,5.639-2.051,5.639-7.979V44.779c0-2.199,0.294-4.466,0.731-6.149
			c0.367-1.464,1.027-2.273,2.564-3.368c-1.538-0.951-2.197-1.831-2.636-3.442c-0.365-1.607-0.66-4.102-0.66-6.149V13.083
			c0-6.078-0.878-7.318-5.639-8.195V1c6.002,0.154,7.836,0.366,10.102,1.097c2.342,0.739,4.318,2.715,5.199,5.125
			c0.731,1.98,0.955,3.593,0.955,7.328v11.855c0,3.297,0.14,4.096,1.022,5.352c0.881,1.088,1.903,1.676,4.172,2.335v2.266
			c-4.613,1.616-5.194,2.493-5.194,7.617V55.91c0,5.554-0.662,8.194-2.782,10.319C91.495,68.716,89.154,69.228,80.367,69.449z"/>
	</g>
	<g>
		<path d="M65.083,6.319c1.596,0.131,4.116,0.93,6.001,2.585c2.012,1.947,2.468,4.915,1.767,7.594
			c-0.629,2.407-1.331,3.653-3.78,5.304c-2.469,1.682-5.467,1.548-5.467,1.548v10.381l5.058,4.091l-5.058,4.083v14.158
			c0,0,5.074-2.915,8.209-9.402c0,0,0.136-0.36,0.429-1.041c0.281,1.76,0.114,5.287-1.856,9.792
			c-1.485,3.417-4.178,6.707-7.57,8.582c-6,3.315-10.506,3.64-15.326,2.635c-5.644-1.168-10.782-4.323-14.292-9.869
			c-2.451-3.898-3.554-8.433-3.455-13.327c0.201-9.577,7.322-17.828,15.547-20.928c1.01-0.372,1.411-0.618,2.824-0.741
			c-0.653,0.442-1.406,1.004-2.335,1.622c-2.651,1.762-4.927,5.222-5.888,7.889l15.97-7.118v22.332l-12.876,6.434
			c1.467,2.058,5.921,5.127,9.742,5.557c6.477,0.719,10.292-2.111,10.292-2.111l-0.006-14.463l-5.023-4.083l5.029-4.081V23.351
			c-2.745-0.329-6.076-1.237-8.027-1.718c-2.866-0.71-12.411-3.385-13.909-3.605c-1.507-0.222-3.355-0.153-4.477,0.84
			c-1.124,1.017-1.816,2.791-1.334,4.393c0.266,0.906,0.891,1.438,1.369,1.949c0,0-0.552-0.044-1.563-0.645
			c-1.793-1.08-3.169-3.209-3.334-5.824c-0.206-3.4,1.199-6.49,4.019-8.567c2.454-1.569,5.227-2.575,8.453-2.13
			c4.7,0.673,11.021,3.347,16.657,4.695c2.181,0.522,3.878,0.695,5.409-0.194c0.717-0.505,1.97-1.833,0.948-3.619
			c-1.196-2.061-3.5-2.011-5.45-2.383C63.448,6.198,63.828,6.198,65.083,6.319z M46.094,50.701V29.147l-6.483,2.901
			c0,0-1.661,3.698-1.373,9.074c0.223,4.189,2.575,9.21,4.381,11.312L46.094,50.701z"/>
	</g>
	<g>
		<g>
			<path d="M122.477,1.981c0.513,0.04,1.321,0.299,1.926,0.833c0.646,0.621,0.794,1.576,0.569,2.438
				c-0.204,0.77-0.427,1.174-1.214,1.701c-0.796,0.54-1.756,0.497-1.756,0.497v3.333l1.625,1.313l-1.625,1.313v4.543
				c0,0,1.628-0.934,2.636-3.017c0,0,0.043-0.115,0.136-0.333c0.092,0.562,0.039,1.696-0.596,3.142
				c-0.474,1.1-1.339,2.155-2.43,2.758c-1.927,1.065-3.373,1.167-4.92,0.844c-1.813-0.376-3.464-1.391-4.589-3.166
				c-0.786-1.256-1.143-2.712-1.108-4.282c0.063-3.073,2.35-5.724,4.994-6.72c0.322-0.12,0.451-0.2,0.906-0.236
				c-0.21,0.143-0.452,0.324-0.751,0.521c-0.85,0.564-1.582,1.675-1.893,2.529l5.128-2.282v7.172l-4.132,2.065
				c0.467,0.662,1.899,1.645,3.125,1.784c2.08,0.23,3.302-0.678,3.302-0.678V13.41l-1.612-1.313l1.612-1.312V7.45
				c-0.878-0.104-1.948-0.398-2.573-0.551c-0.922-0.228-3.988-1.088-4.468-1.161c-0.481-0.069-1.077-0.048-1.436,0.272
				c-0.36,0.326-0.583,0.898-0.43,1.413c0.086,0.289,0.288,0.458,0.44,0.622c0,0-0.176-0.011-0.5-0.202
				c-0.575-0.351-1.018-1.034-1.072-1.871c-0.065-1.093,0.387-2.085,1.291-2.752c0.787-0.504,1.678-0.83,2.715-0.685
				c1.507,0.217,3.538,1.074,5.35,1.507c0.699,0.169,1.242,0.224,1.735-0.062c0.229-0.162,0.633-0.589,0.302-1.162
				c-0.383-0.661-1.122-0.645-1.75-0.765C121.956,1.944,122.076,1.944,122.477,1.981z M116.379,16.236V9.314l-2.081,0.931
				c0,0-0.533,1.186-0.44,2.912c0.074,1.348,0.828,2.956,1.405,3.633L116.379,16.236z"/>
		</g>
		<g>
			<path d="M142.366,8.974c0,0-1.567,0.959-2.627,1.584c-1.055,0.624-2.472,1.32-2.472,1.32v6.607l-0.946,0.753l0.126,0.153
				l0.922-0.747l2.889,2.611l5.022-3.978l-0.121-0.145l-2.774,2.18l-2.284-2.138v-0.796l4.587-3.369L142.366,8.974z M142.433,14.432
				l-2.331,1.704v-5.672L142.433,14.432z"/>
		</g>
		<g>
			<path d="M129.205,23.742c0.657,0.162,1.821,0.251,3.221-0.45c1.553-0.777,2.336-2.426,2.325-4.12l0.067-2.396v-5.235l0.993-0.759
				l-0.116-0.148l-0.978,0.742l-2.253-2.516l-2.893,2.485V2.906l-3.612,2.792c0.157,0.105,0.67,0.197,0.688,0.92v11.825
				l-1.536,1.133l0.104,0.159l0.743-0.55l2.058,1.915l3.236-2.579l-0.113-0.151l-0.761,0.605l-0.808-0.797l0.008-6.59l0.943-0.805
				l1.407,1.752c0,0-0.003,4.264,0.004,5.683c-0.015,1.507-0.017,3.39-0.809,4.301C130.328,23.436,130.009,23.501,129.205,23.742z"
				/>
		</g>
		<g>
			<path d="M151.691,23.148c-1.293-0.153-1.84-0.931-1.824-1.551c0.011-0.402,0.37-1.175,1.156-1.285
				c0.784-0.1,1.589,0.264,2.269,1.06l2.989-3.304l-0.143-0.13l-0.803,0.899c-0.817-0.926-1.974-1.51-3.125-1.681V7.086
				l7.764,14.149c0,0,0.074,0.159,0.395,0.159c0.273,0.008,0.208-0.223,0.208-0.223l-0.001-14.235
				c0.632-0.023,1.593-0.374,2.062-0.851c1.496-1.538,0.885-3.213,0.72-3.378c-0.09,0.737-0.649,1.471-1.591,1.473
				c-1.236,0.005-1.99-0.903-1.99-0.903l-2.984,3.4l0.142,0.132l0.854-0.975c1.048,0.962,1.812,1.052,2.6,1.102v8.263l-5.763-10.467
				c-0.522-0.863-1.312-1.625-2.558-1.633c-1.433-0.005-2.456,1.253-2.58,2.334c-0.139,1.233,0.019,1.513,0.019,1.513
				s0.208-1.369,1.053-1.351c0.758,0.009,1.155,0.707,1.461,1.232v3.031c-0.787,0.059-2.821,0.144-2.95,2.266
				c-0.007,0.79,0.484,1.617,0.912,1.896c0.551,0.364,0.98,0.355,0.98,0.355s-0.659-0.354-0.462-1.049
				c0.178-0.621,1.475-0.719,1.521-0.461v4.276c-0.626-0.008-2.62,0.064-3.519,1.775c-0.544,1.029-0.511,2.186,0.068,3.003
				C149.042,22.585,150.015,23.436,151.691,23.148z"/>
		</g>
		<g>
			<path d="M168.094,8.974c0,0-1.572,0.959-2.63,1.584c-1.06,0.624-2.474,1.32-2.474,1.32v6.607l-0.944,0.753l0.124,0.153
				l0.924-0.747l2.887,2.611l5.026-3.978l-0.12-0.145l-2.777,2.18l-2.279-2.138v-0.796l4.584-3.369L168.094,8.974z M168.16,14.432
				l-2.328,1.704v-5.672L168.16,14.432z"/>
		</g>
		<g>
			<path d="M175.114,21.307l-2.461-2.047l-1.083,0.785l-0.107-0.151l1.097-0.804v-5.722c0.055-2.355-2.156-1.77-2.037-4.271
				c0.054-1.099,1.116-1.93,1.655-2.2c0.57-0.293,1.195-0.293,1.195-0.293s-1.012,0.63-0.766,1.537
				c0.377,1.397,2.766,1.52,2.809,3.379v6.494l1.766,1.412l0.466-0.364v-7.029l-0.953-0.941l2.449-2.162l2.237,1.98l-0.854,0.921
				v6.228l2.093,1.725l0.373-0.232v-7.494l-0.956-0.894l2.458-2.243l2.293,1.892l0.918-0.807l0.122,0.141l-2.062,1.811v6.105
				l-5.275,3.257l-2.701-2.136L175.114,21.307z"/>
		</g>
		<g>
			<path d="M283.038,8.974c0,0-1.573,0.959-2.627,1.584c-1.056,0.624-2.474,1.32-2.474,1.32v6.607l-0.947,0.753l0.126,0.153
				l0.925-0.747l2.887,2.611l5.025-3.978l-0.119-0.145l-2.775,2.18l-2.284-2.138v-0.796l4.586-3.369L283.038,8.974z M283.106,14.432
				l-2.332,1.704v-5.672L283.106,14.432z"/>
		</g>
		<g>
			<polygon points="259.457,11.741 259.58,11.882 260.526,11.072 261.926,12.66 261.926,18.117 261.251,18.738 263.436,21.215 
				265.679,19.001 264.758,18.044 264.758,11.44 265.314,10.994 266.872,12.808 266.872,18.251 266.288,18.834 268.348,21.154 
				270.547,18.947 269.741,18.098 269.718,11.466 270.314,10.987 271.931,12.769 271.931,18.183 271.4,18.716 273.678,21.194 
				276.732,18.373 276.601,18.233 275.859,18.917 274.72,17.655 274.72,11.474 275.818,10.643 275.703,10.493 274.605,11.325 
				272.524,8.995 269.555,11.345 267.474,9.083 264.605,11.322 262.503,9.09 			"/>
		</g>
		<g>
			<polygon points="253.237,11.572 253.363,11.711 254.161,11.022 255.416,12.503 255.416,18.743 254.531,19.515 254.655,19.657 
				255.58,18.867 257.597,21.194 260.51,18.591 260.385,18.449 259.529,19.205 258.322,17.817 258.322,11.713 259.341,10.833 
				259.216,10.689 258.25,11.519 256.125,9.047 			"/>
		</g>
		<g>
			<polygon points="254.082,6.404 256.274,4.394 258.056,6.372 255.851,8.374 			"/>
		</g>
		<g>
			<path d="M251.126,1.981c0.518,0.04,1.321,0.299,1.93,0.833c0.646,0.621,0.794,1.576,0.565,2.438
				c-0.199,0.77-0.427,1.174-1.212,1.701c-0.796,0.54-1.754,0.497-1.754,0.497v3.333l1.625,1.313l-1.625,1.313v4.543
				c0,0,1.628-0.934,2.634-3.017c0,0,0.047-0.115,0.138-0.333c0.086,0.562,0.039,1.696-0.594,3.142
				c-0.478,1.1-1.344,2.155-2.432,2.758c-1.929,1.065-3.375,1.167-4.923,0.844c-1.814-0.376-3.464-1.391-4.586-3.166
				c-0.791-1.256-1.143-2.712-1.112-4.282c0.064-3.073,2.355-5.724,4.999-6.72c0.316-0.12,0.449-0.2,0.904-0.236
				c-0.213,0.143-0.449,0.324-0.754,0.521c-0.849,0.564-1.579,1.675-1.889,2.529l5.128-2.282v7.172l-4.137,2.065
				c0.47,0.662,1.901,1.645,3.126,1.784c2.084,0.23,3.309-0.678,3.309-0.678V13.41l-1.616-1.313l1.616-1.312V7.45
				c-0.88-0.104-1.95-0.398-2.578-0.551c-0.922-0.228-3.985-1.088-4.466-1.161c-0.485-0.069-1.078-0.048-1.437,0.272
				c-0.362,0.326-0.583,0.898-0.43,1.413c0.087,0.289,0.289,0.458,0.435,0.622c0,0-0.175-0.011-0.491-0.202
				c-0.582-0.351-1.028-1.034-1.075-1.871c-0.07-1.093,0.385-2.085,1.289-2.752c0.788-0.504,1.679-0.83,2.715-0.685
				c1.508,0.217,3.538,1.074,5.35,1.507c0.702,0.169,1.245,0.224,1.733-0.062c0.232-0.162,0.633-0.589,0.305-1.162
				c-0.385-0.661-1.122-0.645-1.748-0.765C250.606,1.944,250.726,1.944,251.126,1.981z M245.032,16.236V9.314l-2.082,0.931
				c0,0-0.531,1.186-0.439,2.912c0.073,1.348,0.827,2.956,1.405,3.633L245.032,16.236z"/>
		</g>
		<g>
			<path d="M288.627,22.113c-0.337,0.098-1.775-0.256-2.126-1.757c-0.338-1.453,0.68-2.445,2.207-4.004l-1.81-1.651v-3.158
				c0,0,1.332-0.665,2.372-1.313c1.037-0.655,2.107-1.357,2.107-1.357s0.778,0.976,1.654,0.904c1.378-0.121,1.312-1.206,1.271-1.464
				c0.237,0.421,0.861,1.667-1.554,4.454l1.968,1.587v4.099c0,0-2.281,1.189-4.446,2.772c0,0-1.208-1.515-2.255-0.791
				C287.305,20.922,287.633,21.746,288.627,22.113z M286.926,18.947c0,0,1.037-1.715,2.822-1.343
				c1.713,0.349,2.306,2.161,2.306,2.161v-4.164l-1.191-1.037C289.551,15.883,287.218,17.792,286.926,18.947z M289.572,10.256v3.275
				l1.097,0.957c0,0,2.371-1.902,3.232-3.66c0,0-1.068,1.448-2.499,1.002C290.198,11.461,289.572,10.256,289.572,10.256z"/>
		</g>
		<g>
			<path d="M214.763,11.701l0.888-0.816l0.126,0.143l-0.863,0.802v6.518c0,0-1.636,0.875-2.78,1.515
				c-1.141,0.651-2.37,1.405-2.37,1.405l-3.004-2.537l-0.794,0.699l-0.132-0.149l0.839-0.726v-7.012h0.009
				c0,0,1.418-0.639,2.618-1.313c1.069-0.603,2.267-1.307,2.267-1.307L214.763,11.701z M209.525,17.444l2.541,2.308v-7.045
				l-2.541-2.347V17.444z"/>
		</g>
		<g>
			<path d="M220.674,11.044l1.914-1.955c0,0,0.263,0.229,0.512,0.353c0.136,0.066,0.718,0.362,1.247,0.075
				c0.289-0.16,0.326-0.202,0.644-0.499c0.064,1.521-0.664,2.585-1.574,3.025c-0.372,0.183-1.456,0.531-2.595-0.858v7.02
				l1.209,1.064l1.009-0.833l0.115,0.146l-3.161,2.641l-2.403-2.194l-0.862,0.819l-0.146-0.148l1.317-1.192l0.011-6.053l-1.012-1.34
				l-0.866,0.763l-0.126-0.137l3.061-2.757L220.674,11.044z"/>
		</g>
		<g>
			<path d="M228.737,13.97l3.53-5.142c0,0,0.465,0.55,1.278,0.761c1.1,0.289,2.065-0.776,2.065-0.776
				c-0.185,1.373-0.884,2.938-2.32,3.173c-1.27,0.21-2.447-0.775-2.447-0.775l-0.227,0.354l4.901,7.406l0.979-0.858l0.133,0.141
				l-3.369,2.94L228.737,13.97z"/>
		</g>
		<g>
			<path d="M225.817,7.104c0-1.109-0.453-1.795-1.049-1.75l3.851-2.7v15.318l0,0l1.018,1.072l0.769-0.668l0.126,0.145l-3.104,2.712
				l-2.107-1.978l-0.835,0.742l-0.138-0.146l1.47-1.28V7.104z"/>
		</g>
		<g>
			<path d="M193.605,6.849c0-1.029-0.42-1.613-1.102-1.625c-0.978-0.02-1.213,1.361-1.213,1.361s-0.18-1.064,0.716-2.033
				c0.5-0.543,1.435-1.296,2.894-0.946c1.511,0.365,1.942,1.534,1.942,2.57v14.253c0,0,0.569,0.07,0.962,0.151
				c0.448,0.101,0.88,0.221,0.88,0.221V3.613h0.186v2.318l3.099-2.491l2.264,2.014l1.06-0.918l0.119,0.146l-1.104,0.951v13.251
				c-0.056,0.87-0.193,1.75-1.008,2.25c-1.821,1.083-4.021-0.165-5.978-0.448c-1.455-0.215-3.734-0.49-4.3,0.843
				c-0.193,0.438-0.18,1.118,0.482,1.552c1.319,0.888,7.205-1.481,9.229-0.539c1.839,0.858,1.831,2.215,1.548,3.139
				c-0.479,1.75-2.685,2.054-2.685,2.054s1.078-0.622,0.771-1.658c-0.156-0.529-0.514-0.673-1.669-0.544
				c-2.522,0.284-5.538,1.507-7.568,0.66c-1.041-0.437-1.781-1.744-1.71-3.022c0.051-1.849,2.186-2.577,2.186-2.577v-6.83
				c-0.063-0.271-1.201-0.197-1.45,0.302c-0.377,0.757,0.47,1.111,0.47,1.111s-0.699,0.098-1.291-0.583
				c-0.287-0.329-0.887-1.492-0.107-2.567c0.642-0.885,1.407-1.041,2.379-1.15V6.849z M198.87,20.848c0,0,0.903,0.241,1.557-0.296
				c0.729-0.601,0.651-1.441,0.651-1.441V13.8c0,0-0.421-0.538-1.094-0.538c-0.667,0-1.114,0.555-1.114,0.555V20.848z
				 M201.078,6.916l-1.488-1.309l-0.72,0.569v4.919c0,0,0.447,0.56,1.114,0.56c0.673,0,1.094-0.539,1.094-0.539V6.916z
				 M201.078,11.41c0,0-0.423,0.484-1.098,0.484c-0.666,0-1.11-0.484-1.11-0.484v2.094c0,0,0.444-0.488,1.11-0.488
				c0.675,0,1.098,0.464,1.098,0.464V11.41z"/>
		</g>
	</g>
	<g>
		<path d="M151.556,50.632c0,2.485-0.388,4.762-1.165,6.833c-0.776,2.07-1.863,3.874-3.261,5.409
			c-1.398,1.536-3.089,2.769-5.073,3.701c-1.985,0.932-4.185,1.501-6.6,1.708c-0.794,0.069-1.423,0.121-1.889,0.155
			c-0.466,0.035-0.802,0.052-1.009,0.052h-19.981v-7.972h3.468V40.176h-3.468v-7.972h19.566c1.726,0,3.261,0.113,4.607,0.336
			c1.346,0.225,2.657,0.595,3.934,1.113c3.485,1.38,6.168,3.538,8.049,6.47C150.615,43.058,151.556,46.561,151.556,50.632z
			 M137.838,50.218c0-1.967-0.216-3.614-0.647-4.943c-0.432-1.328-1.148-2.493-2.148-3.494c-0.621-0.655-1.346-1.095-2.174-1.32
			c-0.829-0.224-1.967-0.319-3.417-0.285v20.343c1.415,0.035,2.519-0.068,3.313-0.311c0.793-0.241,1.553-0.69,2.277-1.346
			C136.906,57.207,137.838,54.325,137.838,50.218z"/>
		<path d="M181.578,58.604h-16.305c0.413,2.795,1.845,4.193,4.296,4.193c0.793,0,1.492-0.164,2.097-0.492
			c0.603-0.328,1.198-0.888,1.785-1.683h8.127c-0.483,1.208-0.932,2.157-1.346,2.847c-0.414,0.691-0.915,1.329-1.501,1.915
			c-1.139,1.139-2.588,2.028-4.349,2.666c-1.76,0.638-3.675,0.958-5.745,0.958c-4.763,0-8.352-1.121-10.767-3.365
			c-1.346-1.242-2.399-2.717-3.158-4.426c-0.759-1.708-1.139-3.459-1.139-5.254c0-1.897,0.345-3.631,1.035-5.202
			c0.69-1.57,1.665-2.924,2.925-4.063c1.259-1.139,2.76-2.019,4.503-2.64c1.742-0.621,3.649-0.932,5.72-0.932
			c1.76,0,3.364,0.233,4.813,0.699s2.829,1.199,4.142,2.2c0.758,0.553,1.457,1.226,2.096,2.019c0.639,0.794,1.182,1.665,1.631,2.614
			c0.448,0.95,0.784,1.95,1.01,3.002c0.224,1.053,0.302,2.114,0.232,3.184L181.578,58.604z M171.38,54.152
			c0-2.864-1.019-4.296-3.054-4.296c-1.381,0-2.312,0.656-2.796,1.967c-0.104,0.277-0.173,0.579-0.207,0.906
			c-0.035,0.328-0.051,0.872-0.051,1.63v0.414h6.107V54.152z"/>
		<path d="M208.184,50.374l-8.386,18.117h-8.8L183.7,50.374h-1.708v-6.729h15.271v6.729h-1.709l2.899,7.506l3.261-7.506h-1.915
			v-6.729h9.68v6.729H208.184z"/>
		<path d="M237.74,58.604h-16.306c0.414,2.795,1.846,4.193,4.297,4.193c0.793,0,1.492-0.164,2.097-0.492
			c0.603-0.328,1.198-0.888,1.785-1.683h8.127c-0.483,1.208-0.932,2.157-1.346,2.847c-0.414,0.691-0.915,1.329-1.501,1.915
			c-1.139,1.139-2.588,2.028-4.349,2.666c-1.76,0.638-3.675,0.958-5.745,0.958c-4.763,0-8.352-1.121-10.767-3.365
			c-1.347-1.242-2.399-2.717-3.158-4.426c-0.759-1.708-1.139-3.459-1.139-5.254c0-1.897,0.345-3.631,1.035-5.202
			c0.69-1.57,1.665-2.924,2.925-4.063c1.26-1.139,2.761-2.019,4.504-2.64c1.741-0.621,3.648-0.932,5.72-0.932
			c1.76,0,3.364,0.233,4.813,0.699s2.829,1.199,4.142,2.2c0.758,0.553,1.457,1.226,2.096,2.019c0.639,0.794,1.182,1.665,1.631,2.614
			c0.448,0.95,0.784,1.95,1.01,3.002c0.224,1.053,0.302,2.114,0.232,3.184L237.74,58.604z M227.542,54.152
			c0-2.864-1.019-4.296-3.054-4.296c-1.381,0-2.312,0.656-2.796,1.967c-0.104,0.277-0.173,0.579-0.207,0.906
			c-0.034,0.328-0.052,0.872-0.052,1.63v0.414h6.108V54.152z"/>
		<path d="M239.551,68.491v-6.729h2.07V38.934h-2.07v-6.729h13.77v29.557h2.122v6.729H239.551z"/>
		<path d="M287.07,56.171c0,1.898-0.362,3.632-1.087,5.202c-0.725,1.571-1.752,2.925-3.08,4.063
			c-1.328,1.139-2.907,2.019-4.736,2.64s-3.83,0.932-6.004,0.932c-2.175,0-4.176-0.328-6.005-0.983s-3.416-1.553-4.762-2.692
			c-1.347-1.139-2.399-2.493-3.158-4.063c-0.759-1.57-1.139-3.287-1.139-5.15c0-1.863,0.38-3.588,1.139-5.176
			c0.759-1.587,1.812-2.958,3.158-4.115c1.346-1.156,2.933-2.062,4.762-2.717c1.829-0.655,3.812-0.983,5.953-0.983
			c2.208,0,4.235,0.319,6.082,0.958c1.846,0.639,3.424,1.527,4.736,2.666c1.311,1.139,2.329,2.511,3.054,4.115
			C286.708,52.47,287.07,54.239,287.07,56.171z M275.372,56.274c0-1.932-0.139-3.278-0.414-4.037
			c-0.276-0.725-0.673-1.302-1.19-1.734c-0.518-0.431-1.104-0.647-1.76-0.647c-1.035,0-1.83,0.484-2.382,1.449
			c-0.552,0.967-0.828,2.381-0.828,4.245c0,2.071,0.285,3.658,0.854,4.762c0.569,1.105,1.389,1.657,2.459,1.657
			c0.586,0,1.146-0.215,1.682-0.647c0.535-0.431,0.94-0.991,1.217-1.682C275.25,58.949,275.372,57.828,275.372,56.274z"/>
		<path d="M320.872,56.067c0,1.864-0.285,3.598-0.854,5.202c-0.569,1.605-1.39,2.977-2.459,4.115
			c-1.035,1.139-2.243,2.028-3.623,2.666c-1.381,0.638-2.743,0.958-4.09,0.958c-1.104,0-2.234-0.199-3.39-0.595
			c-1.157-0.396-2.528-1.078-4.115-2.044v4.71h2.795v6.729h-16.564v-6.729h2.07V50.374h-2.07v-6.729h13.77v2.329
			c1.518-1.035,2.881-1.768,4.089-2.2c1.208-0.431,2.467-0.647,3.778-0.647c2.554,0,4.728,0.846,6.522,2.536
			c1.276,1.208,2.286,2.744,3.028,4.607C320.5,52.134,320.872,54.066,320.872,56.067z M309.172,56.274
			c0-0.897-0.034-1.699-0.104-2.407c-0.069-0.707-0.173-1.25-0.311-1.63c-0.276-0.725-0.682-1.302-1.216-1.734
			c-0.536-0.431-1.148-0.647-1.838-0.647c-2.244,0-3.364,1.933-3.364,5.797c0,4.211,1.12,6.315,3.364,6.315
			c0.689,0,1.311-0.215,1.863-0.647c0.552-0.431,0.966-0.991,1.242-1.682C309.051,58.949,309.172,57.828,309.172,56.274z"/>
		<path d="M350.325,58.604h-16.306c0.414,2.795,1.846,4.193,4.297,4.193c0.793,0,1.492-0.164,2.097-0.492
			c0.603-0.328,1.198-0.888,1.785-1.683h8.127c-0.483,1.208-0.932,2.157-1.346,2.847c-0.414,0.691-0.915,1.329-1.501,1.915
			c-1.139,1.139-2.588,2.028-4.349,2.666c-1.76,0.638-3.675,0.958-5.745,0.958c-4.763,0-8.352-1.121-10.767-3.365
			c-1.347-1.242-2.399-2.717-3.158-4.426c-0.759-1.708-1.139-3.459-1.139-5.254c0-1.897,0.345-3.631,1.035-5.202
			c0.69-1.57,1.665-2.924,2.925-4.063c1.26-1.139,2.761-2.019,4.504-2.64c1.741-0.621,3.648-0.932,5.72-0.932
			c1.76,0,3.364,0.233,4.813,0.699s2.829,1.199,4.142,2.2c0.758,0.553,1.457,1.226,2.096,2.019c0.639,0.794,1.182,1.665,1.631,2.614
			c0.448,0.95,0.784,1.95,1.01,3.002c0.224,1.053,0.302,2.114,0.232,3.184L350.325,58.604z M340.127,54.152
			c0-2.864-1.019-4.296-3.054-4.296c-1.381,0-2.312,0.656-2.796,1.967c-0.104,0.277-0.173,0.579-0.207,0.906
			c-0.034,0.328-0.052,0.872-0.052,1.63v0.414h6.108V54.152z"/>
		<path d="M372.375,51.797c-0.759,0.052-1.501,0.165-2.226,0.337c-1.588,0.38-2.743,1.173-3.468,2.381
			c-0.242,0.449-0.406,1.001-0.492,1.656c-0.087,0.656-0.129,1.691-0.129,3.106v2.485h2.795v6.729h-16.564v-6.729h2.07V50.374h-2.07
			v-6.729h13.77v3.831c1.449-1.553,2.854-2.7,4.219-3.442c1.362-0.742,2.872-1.061,4.529-0.958l0.88,0.052v8.592
			C374.238,51.719,373.133,51.745,372.375,51.797z"/>
		<path d="M400.275,60.571c0,1.208-0.242,2.321-0.725,3.339c-0.484,1.018-1.156,1.907-2.02,2.666
			c-0.862,0.759-1.907,1.354-3.131,1.786s-2.562,0.647-4.011,0.647c-0.656,0-1.269-0.026-1.838-0.078s-1.165-0.147-1.786-0.285
			c-0.621-0.138-1.286-0.319-1.993-0.543c-0.707-0.224-1.526-0.509-2.458-0.854v1.242h-5.591v-8.282h5.539
			c0.344,1.105,0.776,1.933,1.294,2.485c0.518,0.552,1.311,0.828,2.381,0.828c0.794,0,1.424-0.164,1.89-0.492
			c0.466-0.328,0.698-0.802,0.698-1.423c0-0.862-0.552-1.535-1.656-2.019l-5.383-2.277c-1.381-0.586-2.425-1.44-3.132-2.562
			c-0.708-1.121-1.062-2.337-1.062-3.649c0-1.069,0.241-2.087,0.725-3.054c0.483-0.966,1.156-1.812,2.019-2.537
			s1.872-1.302,3.028-1.734c1.156-0.431,2.39-0.647,3.701-0.647c1.104,0,2.148,0.121,3.132,0.362
			c0.983,0.242,2.078,0.639,3.287,1.19v-1.035h5.642v7.971h-5.176c-0.242-1.242-0.613-2.191-1.113-2.847
			c-0.5-0.655-1.216-0.983-2.147-0.983c-0.691,0-1.261,0.181-1.709,0.543s-0.673,0.82-0.673,1.372c0,0.966,0.639,1.708,1.915,2.226
			l5.28,2.071C398.584,55.309,400.275,57.5,400.275,60.571z"/>
	</g>
</g>
</svg>
